<mxfile host="Electron" agent="Mozilla/5.0 (Windows NT 10.0; Win64; x64) AppleWebKit/537.36 (KHTML, like Gecko) draw.io/26.1.1 Chrome/132.0.6834.210 Electron/34.3.3 Safari/537.36" version="26.1.1">
  <diagram name="Page-1" id="bR9HOR6jf02DX5lBVoME">
    <mxGraphModel dx="2074" dy="1196" grid="1" gridSize="10" guides="1" tooltips="1" connect="1" arrows="1" fold="1" page="1" pageScale="1" pageWidth="1169" pageHeight="827" math="0" shadow="0">
      <root>
        <mxCell id="0" />
        <mxCell id="1" parent="0" />
        <mxCell id="IyrwF_sSJSI5K8-rsG6f-1" value="" style="sketch=0;points=[[0,0,0],[0.25,0,0],[0.5,0,0],[0.75,0,0],[1,0,0],[0,1,0],[0.25,1,0],[0.5,1,0],[0.75,1,0],[1,1,0],[0,0.25,0],[0,0.5,0],[0,0.75,0],[1,0.25,0],[1,0.5,0],[1,0.75,0]];outlineConnect=0;fontColor=#232F3E;fillColor=#ED7100;strokeColor=#ffffff;dashed=0;verticalLabelPosition=bottom;verticalAlign=top;align=center;html=1;fontSize=12;fontStyle=0;aspect=fixed;shape=mxgraph.aws4.resourceIcon;resIcon=mxgraph.aws4.lambda;" parent="1" vertex="1">
          <mxGeometry x="360" y="329" width="40" height="40" as="geometry" />
        </mxCell>
        <mxCell id="g8x8Qy_UaAUrV20m9tOx-10" style="edgeStyle=orthogonalEdgeStyle;rounded=0;orthogonalLoop=1;jettySize=auto;html=1;" parent="1" source="IyrwF_sSJSI5K8-rsG6f-9" target="IyrwF_sSJSI5K8-rsG6f-1" edge="1">
          <mxGeometry relative="1" as="geometry" />
        </mxCell>
        <mxCell id="IyrwF_sSJSI5K8-rsG6f-9" value="" style="sketch=0;points=[[0,0,0],[0.25,0,0],[0.5,0,0],[0.75,0,0],[1,0,0],[0,1,0],[0.25,1,0],[0.5,1,0],[0.75,1,0],[1,1,0],[0,0.25,0],[0,0.5,0],[0,0.75,0],[1,0.25,0],[1,0.5,0],[1,0.75,0]];points=[[0,0,0],[0.25,0,0],[0.5,0,0],[0.75,0,0],[1,0,0],[0,1,0],[0.25,1,0],[0.5,1,0],[0.75,1,0],[1,1,0],[0,0.25,0],[0,0.5,0],[0,0.75,0],[1,0.25,0],[1,0.5,0],[1,0.75,0]];outlineConnect=0;fontColor=#232F3E;fillColor=#E7157B;strokeColor=#ffffff;dashed=0;verticalLabelPosition=bottom;verticalAlign=top;align=center;html=1;fontSize=12;fontStyle=0;aspect=fixed;shape=mxgraph.aws4.resourceIcon;resIcon=mxgraph.aws4.eventbridge;" parent="1" vertex="1">
          <mxGeometry x="240" y="329" width="40" height="40" as="geometry" />
        </mxCell>
        <mxCell id="IyrwF_sSJSI5K8-rsG6f-18" value="EventBridge rule to periodically trigger lambda" style="text;html=1;strokeColor=none;fillColor=none;align=center;verticalAlign=middle;whiteSpace=wrap;rounded=0;" parent="1" vertex="1">
          <mxGeometry x="180" y="279" width="120" height="40" as="geometry" />
        </mxCell>
        <mxCell id="IyrwF_sSJSI5K8-rsG6f-19" value="Lambda to decide if more compaction tasks should be created" style="text;html=1;strokeColor=none;fillColor=none;align=center;verticalAlign=middle;whiteSpace=wrap;rounded=0;" parent="1" vertex="1">
          <mxGeometry x="325" y="260" width="110" height="59" as="geometry" />
        </mxCell>
        <mxCell id="g8x8Qy_UaAUrV20m9tOx-2" value="" style="endArrow=classic;html=1;rounded=0;exitX=0.5;exitY=0;exitDx=0;exitDy=0;exitPerimeter=0;entryX=0.5;entryY=1;entryDx=0;entryDy=0;entryPerimeter=0;edgeStyle=orthogonalEdgeStyle;startArrow=classic;startFill=1;" parent="1" source="BI4qkSBktyaM1zWKE75I-15" target="IyrwF_sSJSI5K8-rsG6f-1" edge="1">
          <mxGeometry width="50" height="50" relative="1" as="geometry">
            <mxPoint x="380" y="429.5" as="sourcePoint" />
            <mxPoint x="540" y="350" as="targetPoint" />
          </mxGeometry>
        </mxCell>
        <mxCell id="8lTLG8cXME6h-0I4ITZz-22" value="&lt;ol&gt;&lt;li style=&quot;text-align: left;&quot;&gt;An EventBridge rule (R) periodically triggers a lambda (L1).&lt;/li&gt;&lt;li style=&quot;text-align: left;&quot;&gt;Lambda L1 connects to the compaction job queue (Q1) to find out the number of available messages (i.e. messages that are not currently being processed), and to the ECS cluster (E) to find out the number of running tasks. It may then instruct the ECS cluster (E) to run more tasks, up to a configurable maximum limit.&lt;/li&gt;&lt;li style=&quot;text-align: left;&quot;&gt;Tasks running on the ECS cluster (E) pull messages from the compaction job queue (Q), and execute them by reading and writing files to and from the data bucket in S3 (B). Once complete they send a compaction commit message to the compaction commit batching queue (Q2) and delete the message from the compaction job queue (Q1).&lt;/li&gt;&lt;li style=&quot;text-align: left;&quot;&gt;If a task finds there are no messages on the compaction job queue then it waits a configurable amount of time before terminating itself.&lt;/li&gt;&lt;li style=&quot;text-align: left;&quot;&gt;Lambda L2 receives batches of compaction commit messages from Q2 and sends the batch to the state store.&lt;/li&gt;&lt;/ol&gt;&lt;div style=&quot;text-align: left;&quot;&gt;The above diagram does not show some details such as dead-letter queues, and the interactions with the compaction job and task trackers.&lt;/div&gt;&lt;div&gt;&lt;br&gt;&lt;/div&gt;" style="shape=note;whiteSpace=wrap;html=1;backgroundOutline=1;darkOpacity=0.05;fontSize=12;size=16;" parent="1" vertex="1">
          <mxGeometry x="160" y="500" width="570" height="260" as="geometry" />
        </mxCell>
        <mxCell id="BI4qkSBktyaM1zWKE75I-2" style="edgeStyle=orthogonalEdgeStyle;rounded=0;orthogonalLoop=1;jettySize=auto;html=1;startArrow=classic;startFill=1;" parent="1" edge="1">
          <mxGeometry relative="1" as="geometry">
            <mxPoint x="400" y="348.83" as="sourcePoint" />
            <mxPoint x="480" y="348.83" as="targetPoint" />
          </mxGeometry>
        </mxCell>
        <mxCell id="BI4qkSBktyaM1zWKE75I-3" value="ECS cluster to run compaction tasks" style="text;html=1;strokeColor=none;fillColor=none;align=center;verticalAlign=middle;whiteSpace=wrap;rounded=0;" parent="1" vertex="1">
          <mxGeometry x="450" y="270" width="110" height="59" as="geometry" />
        </mxCell>
        <mxCell id="BI4qkSBktyaM1zWKE75I-5" style="edgeStyle=orthogonalEdgeStyle;rounded=0;orthogonalLoop=1;jettySize=auto;html=1;" parent="1" edge="1">
          <mxGeometry relative="1" as="geometry">
            <mxPoint x="520" y="348.83" as="sourcePoint" />
            <mxPoint x="600" y="348.83" as="targetPoint" />
          </mxGeometry>
        </mxCell>
        <mxCell id="BI4qkSBktyaM1zWKE75I-11" value="Compaction job queue" style="text;html=1;strokeColor=none;fillColor=none;align=center;verticalAlign=middle;whiteSpace=wrap;rounded=0;" parent="1" vertex="1">
          <mxGeometry x="240" y="439.5" width="120" height="40" as="geometry" />
        </mxCell>
        <mxCell id="2tTxmo93rGUOtik12QtB-7" style="edgeStyle=orthogonalEdgeStyle;rounded=0;orthogonalLoop=1;jettySize=auto;html=1;exitX=1;exitY=0.5;exitDx=0;exitDy=0;exitPerimeter=0;startArrow=classic;startFill=1;" parent="1" source="BI4qkSBktyaM1zWKE75I-15" edge="1">
          <mxGeometry relative="1" as="geometry">
            <mxPoint x="500" y="370" as="targetPoint" />
          </mxGeometry>
        </mxCell>
        <mxCell id="BI4qkSBktyaM1zWKE75I-15" value="" style="sketch=0;points=[[0,0,0],[0.25,0,0],[0.5,0,0],[0.75,0,0],[1,0,0],[0,1,0],[0.25,1,0],[0.5,1,0],[0.75,1,0],[1,1,0],[0,0.25,0],[0,0.5,0],[0,0.75,0],[1,0.25,0],[1,0.5,0],[1,0.75,0]];outlineConnect=0;fontColor=#232F3E;fillColor=#E7157B;strokeColor=#ffffff;dashed=0;verticalLabelPosition=bottom;verticalAlign=top;align=center;html=1;fontSize=12;fontStyle=0;aspect=fixed;shape=mxgraph.aws4.resourceIcon;resIcon=mxgraph.aws4.sqs;" parent="1" vertex="1">
          <mxGeometry x="360" y="439" width="40" height="40" as="geometry" />
        </mxCell>
        <mxCell id="BI4qkSBktyaM1zWKE75I-17" value="R" style="ellipse;whiteSpace=wrap;html=1;" parent="1" vertex="1">
          <mxGeometry x="250" y="370" width="20" height="20" as="geometry" />
        </mxCell>
        <mxCell id="BI4qkSBktyaM1zWKE75I-19" value="&lt;span style=&quot;color: rgb(90, 108, 134); font-family: Helvetica; font-size: 16px; font-style: normal; font-variant-ligatures: normal; font-variant-caps: normal; font-weight: 400; letter-spacing: normal; orphans: 2; text-align: left; text-indent: 0px; text-transform: none; widows: 2; word-spacing: 0px; -webkit-text-stroke-width: 0px; white-space: normal; background-color: rgb(251, 251, 251); text-decoration-thickness: initial; text-decoration-style: initial; text-decoration-color: initial; display: inline !important; float: none;&quot;&gt;Creation of compaction tasks to process compaction jobs&amp;nbsp;&lt;/span&gt;" style="text;whiteSpace=wrap;html=1;" parent="1" vertex="1">
          <mxGeometry x="140" y="220" width="420" height="40" as="geometry" />
        </mxCell>
        <mxCell id="BI4qkSBktyaM1zWKE75I-20" value="State stores" style="rounded=1;whiteSpace=wrap;html=1;" parent="1" vertex="1">
          <mxGeometry x="840" y="309" width="80" height="79" as="geometry" />
        </mxCell>
        <mxCell id="BI4qkSBktyaM1zWKE75I-21" value="L1" style="ellipse;whiteSpace=wrap;html=1;" parent="1" vertex="1">
          <mxGeometry x="400" y="369" width="20" height="20" as="geometry" />
        </mxCell>
        <mxCell id="BI4qkSBktyaM1zWKE75I-22" value="E" style="ellipse;whiteSpace=wrap;html=1;" parent="1" vertex="1">
          <mxGeometry x="522.5" y="319" width="20" height="20" as="geometry" />
        </mxCell>
        <mxCell id="BI4qkSBktyaM1zWKE75I-23" value="L2" style="ellipse;whiteSpace=wrap;html=1;" parent="1" vertex="1">
          <mxGeometry x="730" y="370" width="20" height="20" as="geometry" />
        </mxCell>
        <mxCell id="BI4qkSBktyaM1zWKE75I-29" value="Q1" style="ellipse;whiteSpace=wrap;html=1;" parent="1" vertex="1">
          <mxGeometry x="400" y="419.5" width="20" height="20" as="geometry" />
        </mxCell>
        <mxCell id="2tTxmo93rGUOtik12QtB-11" style="edgeStyle=orthogonalEdgeStyle;rounded=0;orthogonalLoop=1;jettySize=auto;html=1;exitX=1;exitY=1;exitDx=0;exitDy=0;exitPerimeter=0;startArrow=classic;startFill=1;" parent="1" source="2tTxmo93rGUOtik12QtB-1" target="2tTxmo93rGUOtik12QtB-8" edge="1">
          <mxGeometry relative="1" as="geometry" />
        </mxCell>
        <mxCell id="2tTxmo93rGUOtik12QtB-1" value="" style="sketch=0;points=[[0,0,0],[0.25,0,0],[0.5,0,0],[0.75,0,0],[1,0,0],[0,1,0],[0.25,1,0],[0.5,1,0],[0.75,1,0],[1,1,0],[0,0.25,0],[0,0.5,0],[0,0.75,0],[1,0.25,0],[1,0.5,0],[1,0.75,0]];outlineConnect=0;fontColor=#232F3E;fillColor=#ED7100;strokeColor=#ffffff;dashed=0;verticalLabelPosition=bottom;verticalAlign=top;align=center;html=1;fontSize=12;fontStyle=0;aspect=fixed;shape=mxgraph.aws4.resourceIcon;resIcon=mxgraph.aws4.ecs;" parent="1" vertex="1">
          <mxGeometry x="480" y="329" width="39.5" height="39.5" as="geometry" />
        </mxCell>
        <mxCell id="2tTxmo93rGUOtik12QtB-8" value="" style="sketch=0;points=[[0,0,0],[0.25,0,0],[0.5,0,0],[0.75,0,0],[1,0,0],[0,1,0],[0.25,1,0],[0.5,1,0],[0.75,1,0],[1,1,0],[0,0.25,0],[0,0.5,0],[0,0.75,0],[1,0.25,0],[1,0.5,0],[1,0.75,0]];outlineConnect=0;fontColor=#232F3E;fillColor=#7AA116;strokeColor=#ffffff;dashed=0;verticalLabelPosition=bottom;verticalAlign=top;align=center;html=1;fontSize=12;fontStyle=0;aspect=fixed;shape=mxgraph.aws4.resourceIcon;resIcon=mxgraph.aws4.s3;" parent="1" vertex="1">
          <mxGeometry x="560" y="439" width="40" height="40" as="geometry" />
        </mxCell>
        <mxCell id="2tTxmo93rGUOtik12QtB-9" value="B" style="ellipse;whiteSpace=wrap;html=1;" parent="1" vertex="1">
          <mxGeometry x="602" y="449" width="20" height="20" as="geometry" />
        </mxCell>
        <mxCell id="2tTxmo93rGUOtik12QtB-10" value="Data bucket" style="text;html=1;strokeColor=none;fillColor=none;align=center;verticalAlign=middle;whiteSpace=wrap;rounded=0;" parent="1" vertex="1">
          <mxGeometry x="530" y="470" width="110" height="40" as="geometry" />
        </mxCell>
        <mxCell id="lbHYNrNau5aOLR-KuWrT-1" value="" style="sketch=0;points=[[0,0,0],[0.25,0,0],[0.5,0,0],[0.75,0,0],[1,0,0],[0,1,0],[0.25,1,0],[0.5,1,0],[0.75,1,0],[1,1,0],[0,0.25,0],[0,0.5,0],[0,0.75,0],[1,0.25,0],[1,0.5,0],[1,0.75,0]];outlineConnect=0;fontColor=#232F3E;fillColor=#E7157B;strokeColor=#ffffff;dashed=0;verticalLabelPosition=bottom;verticalAlign=top;align=center;html=1;fontSize=12;fontStyle=0;aspect=fixed;shape=mxgraph.aws4.resourceIcon;resIcon=mxgraph.aws4.sqs;" parent="1" vertex="1">
          <mxGeometry x="600" y="328.5" width="40" height="40" as="geometry" />
        </mxCell>
        <mxCell id="lbHYNrNau5aOLR-KuWrT-2" value="" style="sketch=0;points=[[0,0,0],[0.25,0,0],[0.5,0,0],[0.75,0,0],[1,0,0],[0,1,0],[0.25,1,0],[0.5,1,0],[0.75,1,0],[1,1,0],[0,0.25,0],[0,0.5,0],[0,0.75,0],[1,0.25,0],[1,0.5,0],[1,0.75,0]];outlineConnect=0;fontColor=#232F3E;fillColor=#ED7100;strokeColor=#ffffff;dashed=0;verticalLabelPosition=bottom;verticalAlign=top;align=center;html=1;fontSize=12;fontStyle=0;aspect=fixed;shape=mxgraph.aws4.resourceIcon;resIcon=mxgraph.aws4.lambda;" parent="1" vertex="1">
          <mxGeometry x="720" y="328.5" width="40" height="40" as="geometry" />
        </mxCell>
        <mxCell id="lbHYNrNau5aOLR-KuWrT-3" style="edgeStyle=orthogonalEdgeStyle;rounded=0;orthogonalLoop=1;jettySize=auto;html=1;" parent="1" edge="1">
          <mxGeometry relative="1" as="geometry">
            <mxPoint x="640" y="348.26" as="sourcePoint" />
            <mxPoint x="720" y="348.26" as="targetPoint" />
          </mxGeometry>
        </mxCell>
        <mxCell id="lbHYNrNau5aOLR-KuWrT-4" style="edgeStyle=orthogonalEdgeStyle;rounded=0;orthogonalLoop=1;jettySize=auto;html=1;" parent="1" edge="1">
          <mxGeometry relative="1" as="geometry">
            <mxPoint x="760" y="348.26" as="sourcePoint" />
            <mxPoint x="840" y="348.26" as="targetPoint" />
          </mxGeometry>
        </mxCell>
        <mxCell id="lbHYNrNau5aOLR-KuWrT-5" value="Q2" style="ellipse;whiteSpace=wrap;html=1;" parent="1" vertex="1">
          <mxGeometry x="610" y="370" width="20" height="20" as="geometry" />
        </mxCell>
        <mxCell id="lbHYNrNau5aOLR-KuWrT-7" value="Queue of compaction commit requests" style="text;html=1;strokeColor=none;fillColor=none;align=center;verticalAlign=middle;whiteSpace=wrap;rounded=0;" parent="1" vertex="1">
          <mxGeometry x="570" y="279" width="100" height="40" as="geometry" />
        </mxCell>
        <mxCell id="lbHYNrNau5aOLR-KuWrT-8" value="Lambda that receives batches of compaction commit requests and forwards them to the state store" style="text;html=1;strokeColor=none;fillColor=none;align=center;verticalAlign=middle;whiteSpace=wrap;rounded=0;" parent="1" vertex="1">
          <mxGeometry x="680" y="254" width="130" height="59" as="geometry" />
        </mxCell>
      </root>
    </mxGraphModel>
  </diagram>
</mxfile>
